<?xml version="1.0" encoding="iso-8859-1"?>
<!-- Generator: Adobe Illustrator 19.0.0, SVG Export Plug-In . SVG Version: 6.00 Build 0)  -->
<svg version="1.1" id="Layer_1" xmlns="http://www.w3.org/2000/svg" xmlns:xlink="http://www.w3.org/1999/xlink" x="0px" y="0px"
	 viewBox="0 0 511.996 511.996" style="enable-background:new 0 0 511.996 511.996;" xml:space="preserve">
<path style="fill:#FF9478;" d="M465.217,411.499H339.346V120.343c0-11.539,9.44-20.979,20.979-20.979l0,0
	c11.539,0,20.979,9.44,20.979,20.979v17.982v96.015V98.83c0-11.539,9.44-20.979,20.979-20.979l0,0
	c11.539,0,20.979,9.44,20.979,20.979v63.96v71.497V98.83c0-11.539,9.44-20.979,20.979-20.979l0,0
	c11.539,0,20.979,9.44,20.979,20.979v257.636v55.033H465.217z"/>
<g>
	<path style="opacity:0.5;fill:#FF7956;enable-background:new    ;" d="M381.443,254.816V98.69c0-11.461,9.378-20.839,20.839-20.839
		l0,0c11.461,0,20.839,9.378,20.839,20.839v17.861v137.994c0,4.481-3.632,8.114-8.114,8.114h-25.721
		C384.954,262.659,381.443,259.147,381.443,254.816z"/>
	<path style="opacity:0.2;fill:#FF7956;enable-background:new    ;" d="M339.565,253.475V120.208
		c0-11.461,9.378-20.839,20.839-20.839l0,0c11.461,0,20.839,9.378,20.839,20.839v4.217v129.051c0,3.843-3.115,6.958-6.958,6.958
		h-27.762C342.68,260.432,339.565,257.318,339.565,253.475z"/>
</g>
<path style="fill:#FF9478;" d="M421.067,345.503c0-50.652,42.951-58.8,42.951-58.8v-51.409c0-11.391,9.319-20.71,20.71-20.71l0,0
	c11.391,0,20.71,9.319,20.71,20.71v51.409v40.587l-41.835,106.855H335.287c-20.802,0-37.665-16.863-37.665-37.665V256.861
	l0.304-92.135v-17.751c0-11.391,9.319-20.71,20.71-20.71l0,0c11.391,0,20.71,9.319,20.71,20.71v92.257l0.161,42.311
	c0.127,33.238,27.192,60.07,60.43,59.911l21.235-0.102"/>
<path style="opacity:0.34;fill:#FF7956;enable-background:new    ;" d="M421.067,345.503c0-50.652,42.951-58.8,42.951-58.8v-51.409
	c0-11.391,9.319-20.71,20.71-20.71l0,0c11.391,0,20.71,9.319,20.71,20.71v51.409v40.587l-41.835,106.855H335.287
	c-20.802,0-37.665-16.863-37.665-37.665V256.861l0.304-92.135v-17.751c0-11.391,9.319-20.71,20.71-20.71l0,0
	c11.391,0,20.71,9.319,20.71,20.71v92.257l0.161,42.311c0.127,33.238,27.192,60.07,60.43,59.911l21.235-0.102"/>
<path style="fill:#FF9478;" d="M47.883,411.499h125.872V120.343c0-11.539-9.44-20.979-20.979-20.979l0,0
	c-11.539,0-20.979,9.44-20.979,20.979v17.982v96.015V98.83c0-11.539-9.44-20.979-20.979-20.979l0,0
	c-11.539,0-20.979,9.44-20.979,20.979v63.96v71.497V98.83c0-11.539-9.44-20.979-20.979-20.979l0,0
	c-11.539,0-20.979,9.44-20.979,20.979v257.636L47.883,411.499L47.883,411.499z"/>
<g>
	<path style="opacity:0.5;fill:#FF7956;enable-background:new    ;" d="M131.658,254.816V98.69c0-11.461-9.378-20.839-20.839-20.839
		l0,0c-11.461,0-20.839,9.378-20.839,20.839v17.861v137.994c0,4.481,3.632,8.114,8.114,8.114h25.721
		C128.146,262.659,131.658,259.147,131.658,254.816z"/>
	<path style="opacity:0.2;fill:#FF7956;enable-background:new    ;" d="M173.536,253.475V120.208
		c0-11.461-9.378-20.839-20.839-20.839l0,0c-11.461,0-20.839,9.378-20.839,20.839v4.217v129.051c0,3.843,3.115,6.958,6.958,6.958
		h27.762C170.421,260.432,173.536,257.318,173.536,253.475z"/>
</g>
<path style="fill:#FF9478;" d="M92.033,345.503c0-50.652-42.951-58.8-42.951-58.8v-51.409c0-11.391-9.319-20.71-20.71-20.71l0,0
	c-11.391,0-20.71,9.319-20.71,20.71v51.409v40.587l41.835,106.855h128.317c20.802,0,37.665-16.863,37.665-37.665V256.861
	l-0.304-92.135v-17.751c0-11.391-9.319-20.71-20.71-20.71l0,0c-11.391,0-20.71,9.319-20.71,20.71v92.257l-0.161,42.311
	c-0.127,33.238-27.192,60.07-60.43,59.911l-21.235-0.102"/>
<path style="opacity:0.34;fill:#FF7956;enable-background:new    ;" d="M92.033,345.503c0-50.652-42.951-58.8-42.951-58.8v-51.409
	c0-11.391-9.319-20.71-20.71-20.71l0,0c-11.391,0-20.71,9.319-20.71,20.71v51.409v40.587l41.835,106.855h128.317
	c20.802,0,37.665-16.863,37.665-37.665V256.861l-0.304-92.135v-17.751c0-11.391-9.319-20.71-20.71-20.71l0,0
	c-11.391,0-20.71,9.319-20.71,20.71v92.257l-0.161,42.311c-0.127,33.238-27.192,60.07-60.43,59.911l-21.235-0.102"/>
<path d="M222.838,146.975c0-15.645-12.728-28.373-28.374-28.373c-4.702,0-9.138,1.157-13.047,3.19v-1.994
	c0-15.645-12.728-28.373-28.373-28.373c-4.807,0-9.338,1.206-13.309,3.325c-1.868-13.849-13.758-24.563-28.109-24.563
	c-8.164,0-15.529,3.471-20.711,9.008c-5.181-5.538-12.546-9.008-20.71-9.008c-15.645,0-28.373,12.728-28.373,28.373v111.764
	c-4.007-2.169-8.593-3.403-13.462-3.403C12.728,206.922,0,219.65,0,235.294v91.996c0,0.956,0.179,1.904,0.528,2.793l41.834,106.855
	c1.149,2.938,3.981,4.87,7.135,4.87h128.317c24.994,0,45.328-20.334,45.328-45.328V256.836l-0.304-92.109v-17.752H222.838z
	 M207.817,396.48c0,16.543-13.459,30.002-30.002,30.002H54.727L15.326,325.843v-90.549c0-7.194,5.853-13.047,13.047-13.047
	S41.42,228.1,41.42,235.294v51.409c0,3.653,2.617,6.805,6.198,7.522c1.501,0.3,36.754,7.855,36.754,51.278
	c0,4.232,3.43,7.663,7.663,7.663s7.663-3.431,7.663-7.663c0-29.26-13.284-45.754-24.428-54.439
	c-6.857-5.344-13.754-8.423-18.523-10.103v-4.559c0.265-0.777,0.415-1.605,0.415-2.472V98.561c0-7.194,5.853-13.047,13.047-13.047
	s13.045,5.854,13.045,13.047v63.14v70.582c0,4.232,3.43,7.663,7.663,7.663s7.663-3.431,7.663-7.663v-70.582v-63.14
	c0-7.194,5.854-13.047,13.048-13.047s13.047,5.853,13.047,13.047v21.237v17.751v94.785c0,4.232,3.43,7.663,7.663,7.663
	c4.233,0,7.663-3.431,7.663-7.663v-94.785v-17.751c0-7.194,5.853-13.047,13.047-13.047c7.194,0,13.047,5.853,13.047,13.047v27.177
	v17.751v67.608c0,4.232,3.43,7.663,7.663,7.663c4.233,0,7.663-3.431,7.663-7.663v-67.608v-17.751
	c0-7.194,5.853-13.047,13.047-13.047s13.048,5.853,13.048,13.047v17.776l0.304,92.109v139.62H207.817z"/>
<path d="M483.627,206.922c-4.869,0-9.454,1.234-13.463,3.403V98.561c0-15.645-12.728-28.373-28.373-28.373
	c-8.164,0-15.529,3.471-20.71,9.008c-5.181-5.538-12.546-9.008-20.71-9.008c-14.353,0-26.243,10.714-28.111,24.563
	c-3.972-2.119-8.502-3.325-13.309-3.325c-15.645,0-28.373,12.728-28.373,28.373v1.994c-3.909-2.033-8.344-3.19-13.047-3.19
	c-15.645,0-28.373,12.728-28.373,28.373v17.725l-0.115,35.077c-0.237,1.054-0.25,2.169-0.011,3.282l-0.178,53.801v47.026
	c0,0.017,0,0.034,0,0.051v92.542c0,24.994,20.333,45.328,45.327,45.328h128.317c3.154,0,5.985-1.932,7.135-4.87l41.835-106.855
	c0.349-0.891,0.528-1.838,0.528-2.793v-91.996C512,219.65,499.272,206.922,483.627,206.922z M345.907,119.798
	c0-7.194,5.853-13.047,13.047-13.047c7.194,0,13.047,5.853,13.047,13.047v17.751v33.419l-26.093,7.775v-14.016v-17.751v-27.177
	H345.907z M304.488,146.975c0-7.194,5.853-13.047,13.047-13.047s13.047,5.853,13.047,13.047v17.751v18.583l-26.179,7.8l0.087-26.383
	v-17.751H304.488z M496.674,325.843l-39.402,100.639H334.184c-16.542,0-30.001-13.459-30.001-30.002v-86.767l61.514-18.328
	c4.056-1.209,6.365-5.476,5.156-9.532c-1.209-4.056-5.479-6.366-9.532-5.156l-57.138,17.024v-36.835l0.165-49.77l26.233-7.816
	v33.034c0,4.232,3.43,7.663,7.663,7.663s7.663-3.431,7.663-7.663v-37.601l26.093-7.775v45.375c0,4.232,3.43,7.663,7.663,7.663
	c4.233,0,7.663-3.431,7.663-7.663v-49.942l12.306-3.667c4.056-1.209,6.365-5.476,5.156-9.532s-5.48-6.365-9.532-5.156l-7.93,2.362
	v-28.851v-17.751V98.561c0-7.194,5.854-13.047,13.048-13.047c7.194,0,13.047,5.853,13.047,13.047v63.14v70.582
	c0,4.232,3.43,7.663,7.663,7.663s7.663-3.431,7.663-7.663v-70.582v-63.14c0-7.194,5.853-13.047,13.047-13.047
	s13.047,5.853,13.047,13.047V273.93c0,0.866,0.15,1.695,0.415,2.472v4.559c-4.77,1.681-11.666,4.759-18.523,10.103
	c-11.144,8.685-24.428,25.179-24.428,54.439c0,4.232,3.43,7.663,7.663,7.663s7.663-3.431,7.663-7.663
	c0-43.424,35.253-50.977,36.717-51.271c3.617-0.686,6.236-3.848,6.236-7.529v-51.409c0-7.194,5.854-13.047,13.048-13.047
	s13.047,5.853,13.047,13.047v90.549H496.674z"/>
<path d="M175.245,321.867l-52.315,33.366c-3.568,2.275-4.616,7.013-2.34,10.581c1.462,2.292,3.938,3.543,6.468,3.543
	c1.41,0,2.836-0.389,4.114-1.204l52.315-33.366c3.568-2.275,4.616-7.013,2.34-10.581
	C183.551,320.639,178.814,319.592,175.245,321.867z"/>
<path d="M175.245,355.234L122.93,388.6c-3.568,2.275-4.616,7.013-2.34,10.581c1.462,2.291,3.938,3.543,6.468,3.543
	c1.41,0,2.836-0.388,4.114-1.204l52.315-33.366c3.568-2.275,4.616-7.013,2.34-10.581
	C183.55,354.006,178.815,352.957,175.245,355.234z"/>
<path d="M374.246,303.789l-43.052,12.828c-4.056,1.209-6.365,5.476-5.156,9.532c0.991,3.326,4.039,5.477,7.341,5.477
	c0.724,0,1.462-0.104,2.192-0.321l43.052-12.828c4.056-1.209,6.365-5.476,5.156-9.532
	C382.57,304.889,378.297,302.58,374.246,303.789z"/>
<g>
</g>
<g>
</g>
<g>
</g>
<g>
</g>
<g>
</g>
<g>
</g>
<g>
</g>
<g>
</g>
<g>
</g>
<g>
</g>
<g>
</g>
<g>
</g>
<g>
</g>
<g>
</g>
<g>
</g>
</svg>
